<?xml version="1.0" standalone="no"?>
<!DOCTYPE svg PUBLIC "-//W3C//DTD SVG 1.1//EN" "http://www.w3.org/Graphics/SVG/1.1/DTD/svg11.dtd">
<svg xmlns="http://www.w3.org/2000/svg" id="Camada_2" data-name="Camada 2" viewBox="0 0 1555.57 400" width="1555.5699462890625" height="400">
  <defs>
    <style>
      .cls-1, .cls-2 {
        stroke-width: 0px;
      }

      .cls-2 {
        fill: red;
      }
    </style>
  </defs>
  <g id="Camada_1-2" data-name="Camada 1">
    <polygon class="cls-1" points="48.77 10.87 48.32 11.8 43.92 11.8 26.54 47.9 9.1 11.8 4.57 11.8 4.19 11 4.19 11.8 0 11.8 0 58.95 7.53 58.95 7.53 25.61 23.62 58.95 29.27 58.95 45.42 25.48 45.42 58.95 53.08 58.95 53.08 11.8 48.77 11.8 48.77 10.87"/>
    <path class="cls-1" d="m162.24,40.79c0,7.81-4.64,11.6-14.18,11.6-9.5,0-14.12-3.8-14.12-11.6V11.8h-7.66v29.63c0,11.63,7.94,18.29,21.77,18.29,13.8,0,21.71-6.69,21.71-18.36V11.8h-7.53v28.99Z"/>
    <polygon class="cls-1" points="250.69 11.8 243.03 11.8 243.03 58.95 282.71 58.95 282.71 51.81 250.69 51.81 250.69 11.8"/>
    <polygon class="cls-1" points="337.87 18.94 355.91 18.94 355.91 58.95 363.57 58.95 363.57 18.94 381.68 18.94 381.68 11.8 337.87 11.8 337.87 18.94"/>
    <rect class="cls-1" x="451.91" y="11.8" width="7.66" height="47.16"/>
    <path class="cls-1" d="m560.28,11.8h-26.8v47.16h7.66v-17.85s19.14,0,19.14,0c10.19,0,16.04-5.33,16.04-14.62,0-9.2-6-14.69-16.04-14.69Zm8.32,14.69c0,3.51-1.06,7.54-9.28,7.54h-18.17s0-15.09,0-15.09h18.17c8.23,0,9.28,4.03,9.28,7.54Z"/>
    <polygon class="cls-1" points="655.12 11.8 647.46 11.8 647.46 58.95 687.14 58.95 687.14 51.81 655.12 51.81 655.12 11.8"/>
    <rect class="cls-1" x="757.38" y="11.8" width="7.66" height="47.16"/>
    <path class="cls-1" d="m877.12,47.82c-4.2,3.12-8.67,4.57-14.08,4.57-11.53,0-18.69-6.54-18.69-17.08,0-10.3,7.11-16.95,18.11-16.95,4.91,0,9.26,1.34,13.3,4.09l1.61,1.1,3.18-6.71-1.16-.81c-4.75-3.32-10.47-5.01-17-5.01-15.45,0-25.83,9.81-25.83,24.42,0,14.53,10.51,24.29,26.16,24.29,7.21,0,13.73-1.98,18.36-5.57l1.11-.86-3.49-6.64-1.57,1.16Z"/>
    <path class="cls-1" d="m977.36,11.8h-6.48s-22.68,47.16-22.68,47.16h8.29s5.93-12.44,5.93-12.44h23.22s5.99,12.44,5.99,12.44h8.41s-22.68-47.16-22.68-47.16Zm-11.55,27.58l8.24-17.31,8.19,17.31h-16.43Z"/>
    <g>
      <path class="cls-2" d="m1025.1,127.78h163.33c63.4,0,92.41,49.07,92.41,92.05,0,35.46-17.19,66.98-49.79,79.16l51.94,97.43h-62.32c.72-2.87,1.07-5.73,1.07-8.95,0-19.7-15.76-35.82-35.82-35.82s-35.82,16.12-35.82,35.82c0,3.22.36,6.09,1.07,8.95h-126.08s0-268.64,0-268.64Zm160.82,126.08c18.98,0,34.03-15.4,34.03-34.03,0-18.63-15.04-34.03-34.03-34.03-18.63,0-34.03,15.4-34.03,34.03,0,18.62,15.4,34.03,34.03,34.03Z"/>
      <g>
        <path class="cls-2" d="m128.95,264.97v131.45s-128.95,0-128.95,0V127.78s226.01,0,226.01,0v60.89s-55.16,0-55.16,0l15.04,12.89c7.88,6.81,12.9,16.48,12.9,27.58,0,19.7-16.12,35.82-35.82,35.82h-34.03Z"/>
        <path class="cls-2" d="m236.75,127.78h129.3c-1.79,4.3-2.87,8.95-2.87,13.97,0,19.7,16.12,35.82,35.82,35.82,20.06,0,35.82-16.12,35.82-35.82,0-5.01-1.07-9.67-2.87-13.97h61.25s0,143.99,0,143.99c0,70.92-56.95,128.23-128.23,128.23-70.92,0-128.23-57.31-128.23-128.23V127.78Z"/>
        <path class="cls-2" d="m503.95,127.78h228.88s0,60.89,0,60.89h-50.14v207.74s-128.59,0-128.59,0v-207.74h-50.15s0-60.89,0-60.89Z"/>
        <path class="cls-2" d="m743.57,127.78h129.3c-1.79,4.3-2.87,8.95-2.87,13.97,0,19.7,16.12,35.82,35.82,35.82,20.06,0,35.82-16.12,35.82-35.82,0-5.01-1.07-9.67-2.87-13.97h61.25s0,143.99,0,143.99c0,70.92-56.95,128.23-128.23,128.23-70.92,0-128.23-57.31-128.23-128.23V127.78Z"/>
        <path class="cls-2" d="m1286.21,262.1c0-82.02,60.53-137.9,134.68-137.9,74.14,0,134.68,55.88,134.68,137.9,0,81.66-60.53,137.9-134.68,137.9s-134.68-56.24-134.68-137.9Zm204.16-.36c0-19.7-15.76-35.82-35.82-35.82-19.7,0-35.82,16.12-35.82,35.82,0,19.7,16.12,35.82,35.82,35.82s35.82-16.12,35.82-35.82Z"/>
        <path class="cls-2" d="m1081.14,68.05c18.98,0,34.03-15.4,34.03-34.03C1115.17,15.4,1100.12,0,1081.14,0c-18.63,0-34.03,15.4-34.03,34.03,0,18.62,15.4,34.03,34.03,34.03Z"/>
        <path class="cls-2" d="m1186.42,68.05c18.98,0,34.03-15.4,34.03-34.03C1220.45,15.4,1205.4,0,1186.42,0c-18.63,0-34.03,15.4-34.03,34.03,0,18.62,15.4,34.03,34.03,34.03Z"/>
        <path class="cls-2" d="m1291.7,68.05c18.98,0,34.03-15.4,34.03-34.03,0-18.63-15.04-34.03-34.03-34.03-18.63,0-34.03,15.4-34.03,34.03,0,18.62,15.4,34.03,34.03,34.03Z"/>
      </g>
    </g>
  </g>
</svg>